<svg width="16" height="16" viewBox="0 0 16 16" fill="none" xmlns="http://www.w3.org/2000/svg">
<mask id="mask0_16487_295752" style="mask-type:alpha" maskUnits="userSpaceOnUse" x="0" y="0" width="16" height="16">
<circle cx="8" cy="8" r="8" fill="#C4C4C4"/>
<circle cx="8" cy="8" r="7.5" stroke="black" stroke-opacity="0.25"/>
</mask>
<g mask="url(#mask0_16487_295752)">
<rect y="16" width="16" height="16" transform="rotate(-90 0 16)" fill="#004C95"/>
<mask id="path-4-inside-1_16487_295752" fill="white">
<path fill-rule="evenodd" clip-rule="evenodd" d="M6.76927 5.74361L4.718 3.69234L3.69237 4.71797L5.74364 6.76924L3.69236 8.82052L4.71799 9.84616L6.76927 7.79488L8.82053 9.84614L9.84617 8.8205L7.7949 6.76924L9.84616 4.71799L8.82052 3.69236L6.76927 5.74361Z"/>
</mask>
<path fill-rule="evenodd" clip-rule="evenodd" d="M6.76927 5.74361L4.718 3.69234L3.69237 4.71797L5.74364 6.76924L3.69236 8.82052L4.71799 9.84616L6.76927 7.79488L8.82053 9.84614L9.84617 8.8205L7.7949 6.76924L9.84616 4.71799L8.82052 3.69236L6.76927 5.74361Z" fill="#D9000A"/>
<path d="M4.718 3.69234L4.92633 3.48401L4.718 3.27567L4.50967 3.48401L4.718 3.69234ZM6.76927 5.74361L6.56094 5.95194L6.76927 6.16027L6.9776 5.95194L6.76927 5.74361ZM3.69237 4.71797L3.48403 4.50964L3.2757 4.71797L3.48403 4.9263L3.69237 4.71797ZM5.74364 6.76924L5.95197 6.97757L6.1603 6.76924L5.95197 6.56091L5.74364 6.76924ZM3.69236 8.82052L3.48402 8.61219L3.27569 8.82052L3.48402 9.02886L3.69236 8.82052ZM4.71799 9.84616L4.50966 10.0545L4.71799 10.2628L4.92632 10.0545L4.71799 9.84616ZM6.76927 7.79488L6.9776 7.58654L6.76927 7.37821L6.56094 7.58654L6.76927 7.79488ZM8.82053 9.84614L8.6122 10.0545L8.82053 10.2628L9.02887 10.0545L8.82053 9.84614ZM9.84617 8.8205L10.0545 9.02884L10.2628 8.8205L10.0545 8.61217L9.84617 8.8205ZM7.7949 6.76924L7.58657 6.56091L7.37824 6.76924L7.58657 6.97757L7.7949 6.76924ZM9.84616 4.71799L10.0545 4.92632L10.2628 4.71799L10.0545 4.50966L9.84616 4.71799ZM8.82052 3.69236L9.02886 3.48402L8.82052 3.27569L8.61219 3.48402L8.82052 3.69236ZM4.50967 3.90067L6.56094 5.95194L6.9776 5.53528L4.92633 3.48401L4.50967 3.90067ZM3.9007 4.9263L4.92633 3.90067L4.50967 3.48401L3.48403 4.50964L3.9007 4.9263ZM5.95197 6.56091L3.9007 4.50964L3.48403 4.9263L5.53531 6.97757L5.95197 6.56091ZM3.90069 9.02886L5.95197 6.97757L5.53531 6.56091L3.48402 8.61219L3.90069 9.02886ZM4.92632 9.63783L3.90069 8.61219L3.48402 9.02886L4.50966 10.0545L4.92632 9.63783ZM6.56094 7.58654L4.50966 9.63783L4.92632 10.0545L6.9776 8.00321L6.56094 7.58654ZM9.02887 9.63781L6.9776 7.58654L6.56094 8.00321L8.6122 10.0545L9.02887 9.63781ZM9.63784 8.61217L8.6122 9.63781L9.02887 10.0545L10.0545 9.02884L9.63784 8.61217ZM7.58657 6.97757L9.63784 9.02884L10.0545 8.61217L8.00324 6.56091L7.58657 6.97757ZM9.63783 4.50966L7.58657 6.56091L8.00324 6.97757L10.0545 4.92632L9.63783 4.50966ZM8.61219 3.90069L9.63783 4.92632L10.0545 4.50966L9.02886 3.48402L8.61219 3.90069ZM6.9776 5.95194L9.02886 3.90069L8.61219 3.48402L6.56094 5.53528L6.9776 5.95194Z" fill="white" mask="url(#path-4-inside-1_16487_295752)"/>
<mask id="path-6-outside-2_16487_295752" maskUnits="userSpaceOnUse" x="2.69233" y="2.69232" width="8" height="8" fill="black">
<rect fill="white" x="2.69233" y="2.69232" width="8" height="8"/>
<path fill-rule="evenodd" clip-rule="evenodd" d="M7.38465 6.15387V3.69232H6.15388V6.15387H3.69233V7.38464H6.15388V9.84617H7.38465V7.38464H9.84617V6.15387H7.38465Z"/>
</mask>
<path fill-rule="evenodd" clip-rule="evenodd" d="M7.38465 6.15387V3.69232H6.15388V6.15387H3.69233V7.38464H6.15388V9.84617H7.38465V7.38464H9.84617V6.15387H7.38465Z" fill="#D9000A"/>
<path d="M7.38465 3.69232H7.63465V3.44232H7.38465V3.69232ZM7.38465 6.15387H7.13465V6.40387H7.38465V6.15387ZM6.15388 3.69232V3.44232H5.90388V3.69232H6.15388ZM6.15388 6.15387V6.40387H6.40388V6.15387H6.15388ZM3.69233 6.15387V5.90387H3.44233V6.15387H3.69233ZM3.69233 7.38464H3.44233V7.63464H3.69233V7.38464ZM6.15388 7.38464H6.40388V7.13464H6.15388V7.38464ZM6.15388 9.84617H5.90388V10.0962H6.15388V9.84617ZM7.38465 9.84617V10.0962H7.63465V9.84617H7.38465ZM7.38465 7.38464V7.13464H7.13465V7.38464H7.38465ZM9.84617 7.38464V7.63464H10.0962V7.38464H9.84617ZM9.84617 6.15387H10.0962V5.90387H9.84617V6.15387ZM7.13465 3.69232V6.15387H7.63465V3.69232H7.13465ZM6.15388 3.94232H7.38465V3.44232H6.15388V3.94232ZM6.40388 6.15387V3.69232H5.90388V6.15387H6.40388ZM3.69233 6.40387H6.15388V5.90387H3.69233V6.40387ZM3.94233 7.38464V6.15387H3.44233V7.38464H3.94233ZM6.15388 7.13464H3.69233V7.63464H6.15388V7.13464ZM6.40388 9.84617V7.38464H5.90388V9.84617H6.40388ZM7.38465 9.59617H6.15388V10.0962H7.38465V9.59617ZM7.13465 7.38464V9.84617H7.63465V7.38464H7.13465ZM9.84617 7.13464H7.38465V7.63464H9.84617V7.13464ZM9.59617 6.15387V7.38464H10.0962V6.15387H9.59617ZM7.38465 6.40387H9.84617V5.90387H7.38465V6.40387Z" fill="white" mask="url(#path-6-outside-2_16487_295752)"/>
<mask id="path-8-inside-3_16487_295752" fill="white">
<path fill-rule="evenodd" clip-rule="evenodd" d="M5.5385 12.1336L5.19038 11.7855L5.01632 11.9596L5.36444 12.3077L5.01629 12.6558L5.19035 12.8299L5.5385 12.4817L5.8866 12.8298L6.06066 12.6558L5.71256 12.3077L6.06064 11.9596L5.88658 11.7856L5.5385 12.1336Z"/>
</mask>
<path fill-rule="evenodd" clip-rule="evenodd" d="M5.5385 12.1336L5.19038 11.7855L5.01632 11.9596L5.36444 12.3077L5.01629 12.6558L5.19035 12.8299L5.5385 12.4817L5.8866 12.8298L6.06066 12.6558L5.71256 12.3077L6.06064 11.9596L5.88658 11.7856L5.5385 12.1336Z" fill="white"/>
<path d="M5.19038 11.7855L5.22573 11.7502L5.19038 11.7148L5.15502 11.7502L5.19038 11.7855ZM5.5385 12.1336L5.50314 12.169L5.5385 12.2043L5.57386 12.169L5.5385 12.1336ZM5.01632 11.9596L4.98096 11.9242L4.94561 11.9596L4.98096 11.9949L5.01632 11.9596ZM5.36444 12.3077L5.3998 12.343L5.43515 12.3077L5.3998 12.2723L5.36444 12.3077ZM5.01629 12.6558L4.98094 12.6205L4.94558 12.6558L4.98094 12.6912L5.01629 12.6558ZM5.19035 12.8299L5.15499 12.8653L5.19035 12.9006L5.22571 12.8653L5.19035 12.8299ZM5.5385 12.4817L5.57386 12.4464L5.5385 12.411L5.50315 12.4464L5.5385 12.4817ZM5.8866 12.8298L5.85125 12.8652L5.8866 12.9006L5.92196 12.8652L5.8866 12.8298ZM6.06066 12.6558L6.09602 12.6911L6.13137 12.6558L6.09602 12.6204L6.06066 12.6558ZM5.71256 12.3077L5.6772 12.2723L5.64185 12.3077L5.6772 12.343L5.71256 12.3077ZM6.06064 11.9596L6.09599 11.995L6.13135 11.9596L6.09599 11.9243L6.06064 11.9596ZM5.88658 11.7856L5.92193 11.7502L5.88658 11.7148L5.85122 11.7502L5.88658 11.7856ZM5.15502 11.8209L5.50314 12.169L5.57386 12.0983L5.22573 11.7502L5.15502 11.8209ZM5.05167 11.9949L5.22573 11.8209L5.15502 11.7502L4.98096 11.9242L5.05167 11.9949ZM5.3998 12.2723L5.05167 11.9242L4.98096 11.9949L5.32909 12.343L5.3998 12.2723ZM5.05165 12.6912L5.3998 12.343L5.32909 12.2723L4.98094 12.6205L5.05165 12.6912ZM5.22571 12.7945L5.05165 12.6205L4.98094 12.6912L5.15499 12.8653L5.22571 12.7945ZM5.50315 12.4464L5.15499 12.7945L5.22571 12.8653L5.57386 12.5171L5.50315 12.4464ZM5.92196 12.7945L5.57386 12.4464L5.50315 12.5171L5.85125 12.8652L5.92196 12.7945ZM6.02531 12.6204L5.85125 12.7945L5.92196 12.8652L6.09602 12.6911L6.02531 12.6204ZM5.6772 12.343L6.02531 12.6911L6.09602 12.6204L5.74791 12.2723L5.6772 12.343ZM6.02528 11.9243L5.6772 12.2723L5.74791 12.343L6.09599 11.995L6.02528 11.9243ZM5.85122 11.8209L6.02528 11.995L6.09599 11.9243L5.92193 11.7502L5.85122 11.8209ZM5.57386 12.169L5.92193 11.8209L5.85122 11.7502L5.50314 12.0983L5.57386 12.169Z" fill="white" mask="url(#path-8-inside-3_16487_295752)"/>
<mask id="path-10-outside-4_16487_295752" maskUnits="userSpaceOnUse" x="3.9231" y="10.6923" width="3" height="3" fill="black">
<rect fill="white" x="3.9231" y="10.6923" width="3" height="3"/>
<path fill-rule="evenodd" clip-rule="evenodd" d="M5.66159 12.1846V11.6923H5.41544L5.41544 12.1846H4.9231V12.4308H5.41544L5.41544 12.9231H5.66159V12.4308H6.15387V12.1846H5.66159Z"/>
</mask>
<path fill-rule="evenodd" clip-rule="evenodd" d="M5.66159 12.1846V11.6923H5.41544L5.41544 12.1846H4.9231V12.4308H5.41544L5.41544 12.9231H5.66159V12.4308H6.15387V12.1846H5.66159Z" fill="white"/>
<path d="M5.66159 11.6923H5.71159V11.6423H5.66159V11.6923ZM5.66159 12.1846H5.61159V12.2346H5.66159V12.1846ZM5.41544 11.6923V11.6423H5.36544L5.36544 11.6923L5.41544 11.6923ZM5.41544 12.1846V12.2346H5.46544L5.46544 12.1846L5.41544 12.1846ZM4.9231 12.1846V12.1346H4.8731V12.1846H4.9231ZM4.9231 12.4308H4.8731V12.4808H4.9231V12.4308ZM5.41544 12.4308L5.46544 12.4308L5.46544 12.3808H5.41544V12.4308ZM5.41544 12.9231L5.36544 12.9231L5.36544 12.9731H5.41544V12.9231ZM5.66159 12.9231V12.9731H5.71159V12.9231H5.66159ZM5.66159 12.4308V12.3808H5.61159V12.4308H5.66159ZM6.15387 12.4308V12.4808H6.20387V12.4308H6.15387ZM6.15387 12.1846H6.20387V12.1346H6.15387V12.1846ZM5.61159 11.6923V12.1846H5.71159V11.6923H5.61159ZM5.41544 11.7423H5.66159V11.6423H5.41544V11.7423ZM5.46544 12.1846L5.46544 11.6923L5.36544 11.6923L5.36544 12.1846L5.46544 12.1846ZM4.9231 12.2346H5.41544V12.1346H4.9231V12.2346ZM4.9731 12.4308V12.1846H4.8731V12.4308H4.9731ZM5.41544 12.3808H4.9231V12.4808H5.41544V12.3808ZM5.46544 12.9231L5.46544 12.4308L5.36544 12.4308L5.36544 12.9231L5.46544 12.9231ZM5.66159 12.8731H5.41544V12.9731H5.66159V12.8731ZM5.61159 12.4308V12.9231H5.71159V12.4308H5.61159ZM6.15387 12.3808H5.66159V12.4808H6.15387V12.3808ZM6.10387 12.1846V12.4308H6.20387V12.1846H6.10387ZM5.66159 12.2346H6.15387V12.1346H5.66159V12.2346Z" fill="white" mask="url(#path-10-outside-4_16487_295752)"/>
<mask id="path-12-inside-5_16487_295752" fill="white">
<path fill-rule="evenodd" clip-rule="evenodd" d="M11.6923 12.1336L11.3442 11.7855L11.1701 11.9596L11.5182 12.3077L11.1701 12.6558L11.3441 12.8299L11.6923 12.4817L12.0404 12.8298L12.2145 12.6558L11.8664 12.3077L12.2144 11.9596L12.0404 11.7856L11.6923 12.1336Z"/>
</mask>
<path fill-rule="evenodd" clip-rule="evenodd" d="M11.6923 12.1336L11.3442 11.7855L11.1701 11.9596L11.5182 12.3077L11.1701 12.6558L11.3441 12.8299L11.6923 12.4817L12.0404 12.8298L12.2145 12.6558L11.8664 12.3077L12.2144 11.9596L12.0404 11.7856L11.6923 12.1336Z" fill="white"/>
<path d="M11.3442 11.7855L11.3795 11.7502L11.3442 11.7148L11.3088 11.7502L11.3442 11.7855ZM11.6923 12.1336L11.6569 12.169L11.6923 12.2043L11.7277 12.169L11.6923 12.1336ZM11.1701 11.9596L11.1348 11.9242L11.0994 11.9596L11.1348 11.9949L11.1701 11.9596ZM11.5182 12.3077L11.5536 12.343L11.589 12.3077L11.5536 12.2723L11.5182 12.3077ZM11.1701 12.6558L11.1347 12.6205L11.0994 12.6558L11.1347 12.6912L11.1701 12.6558ZM11.3441 12.8299L11.3088 12.8653L11.3441 12.9006L11.3795 12.8653L11.3441 12.8299ZM11.6923 12.4817L11.7277 12.4464L11.6923 12.411L11.6569 12.4464L11.6923 12.4817ZM12.0404 12.8298L12.005 12.8652L12.0404 12.9006L12.0758 12.8652L12.0404 12.8298ZM12.2145 12.6558L12.2498 12.6911L12.2852 12.6558L12.2498 12.6204L12.2145 12.6558ZM11.8664 12.3077L11.831 12.2723L11.7956 12.3077L11.831 12.343L11.8664 12.3077ZM12.2144 11.9596L12.2498 11.995L12.2851 11.9596L12.2498 11.9243L12.2144 11.9596ZM12.0404 11.7856L12.0757 11.7502L12.0404 11.7148L12.005 11.7502L12.0404 11.7856ZM11.3088 11.8209L11.6569 12.169L11.7277 12.0983L11.3795 11.7502L11.3088 11.8209ZM11.2055 11.9949L11.3795 11.8209L11.3088 11.7502L11.1348 11.9242L11.2055 11.9949ZM11.5536 12.2723L11.2055 11.9242L11.1348 11.9949L11.4829 12.343L11.5536 12.2723ZM11.2054 12.6912L11.5536 12.343L11.4829 12.2723L11.1347 12.6205L11.2054 12.6912ZM11.3795 12.7945L11.2054 12.6205L11.1347 12.6912L11.3088 12.8653L11.3795 12.7945ZM11.6569 12.4464L11.3088 12.7945L11.3795 12.8653L11.7277 12.5171L11.6569 12.4464ZM12.0758 12.7945L11.7277 12.4464L11.6569 12.5171L12.005 12.8652L12.0758 12.7945ZM12.1791 12.6204L12.005 12.7945L12.0758 12.8652L12.2498 12.6911L12.1791 12.6204ZM11.831 12.343L12.1791 12.6911L12.2498 12.6204L11.9017 12.2723L11.831 12.343ZM12.1791 11.9243L11.831 12.2723L11.9017 12.343L12.2498 11.995L12.1791 11.9243ZM12.005 11.8209L12.1791 11.995L12.2498 11.9243L12.0757 11.7502L12.005 11.8209ZM11.7277 12.169L12.0757 11.8209L12.005 11.7502L11.6569 12.0983L11.7277 12.169Z" fill="white" mask="url(#path-12-inside-5_16487_295752)"/>
<mask id="path-14-outside-6_16487_295752" maskUnits="userSpaceOnUse" x="10.0769" y="10.6923" width="3" height="3" fill="black">
<rect fill="white" x="10.0769" y="10.6923" width="3" height="3"/>
<path fill-rule="evenodd" clip-rule="evenodd" d="M11.8154 12.1846V11.6923H11.5692L11.5692 12.1846H11.0769V12.4308H11.5692L11.5692 12.9231H11.8154V12.4308H12.3077V12.1846H11.8154Z"/>
</mask>
<path fill-rule="evenodd" clip-rule="evenodd" d="M11.8154 12.1846V11.6923H11.5692L11.5692 12.1846H11.0769V12.4308H11.5692L11.5692 12.9231H11.8154V12.4308H12.3077V12.1846H11.8154Z" fill="white"/>
<path d="M11.8154 11.6923H11.8654V11.6423H11.8154V11.6923ZM11.8154 12.1846H11.7654V12.2346H11.8154V12.1846ZM11.5692 11.6923V11.6423H11.5192L11.5192 11.6923L11.5692 11.6923ZM11.5692 12.1846V12.2346H11.6192L11.6192 12.1846L11.5692 12.1846ZM11.0769 12.1846V12.1346H11.0269V12.1846H11.0769ZM11.0769 12.4308H11.0269V12.4808H11.0769V12.4308ZM11.5692 12.4308L11.6192 12.4308L11.6192 12.3808H11.5692V12.4308ZM11.5692 12.9231L11.5192 12.9231L11.5192 12.9731H11.5692V12.9231ZM11.8154 12.9231V12.9731H11.8654V12.9231H11.8154ZM11.8154 12.4308V12.3808H11.7654V12.4308H11.8154ZM12.3077 12.4308V12.4808H12.3577V12.4308H12.3077ZM12.3077 12.1846H12.3577V12.1346H12.3077V12.1846ZM11.7654 11.6923V12.1846H11.8654V11.6923H11.7654ZM11.5692 11.7423H11.8154V11.6423H11.5692V11.7423ZM11.6192 12.1846L11.6192 11.6923L11.5192 11.6923L11.5192 12.1846L11.6192 12.1846ZM11.0769 12.2346H11.5692V12.1346H11.0769V12.2346ZM11.1269 12.4308V12.1846H11.0269V12.4308H11.1269ZM11.5692 12.3808H11.0769V12.4808H11.5692V12.3808ZM11.6192 12.9231L11.6192 12.4308L11.5192 12.4308L11.5192 12.9231L11.6192 12.9231ZM11.8154 12.8731H11.5692V12.9731H11.8154V12.8731ZM11.7654 12.4308V12.9231H11.8654V12.4308H11.7654ZM12.3077 12.3808H11.8154V12.4808H12.3077V12.3808ZM12.2577 12.1846V12.4308H12.3577V12.1846H12.2577ZM11.8154 12.2346H12.3077V12.1346H11.8154V12.2346Z" fill="white" mask="url(#path-14-outside-6_16487_295752)"/>
</g>
</svg>
