<svg width="16" height="16" viewBox="0 0 16 16" fill="none" xmlns="http://www.w3.org/2000/svg">
<mask id="mask0_16487_295748" style="mask-type:alpha" maskUnits="userSpaceOnUse" x="0" y="0" width="16" height="16">
<circle cx="8" cy="8" r="8" fill="#C4C4C4"/>
</mask>
<g mask="url(#mask0_16487_295748)">
<rect y="16" width="16" height="16" transform="rotate(-90 0 16)" fill="white"/>
<path d="M7.28682 4.95908C7.27424 4.98264 7.25739 5.00331 7.23724 5.0199C7.21709 5.0365 7.19405 5.04868 7.16944 5.05576C7.14484 5.06284 7.11915 5.06467 7.09387 5.06115C7.06859 5.05762 7.04422 5.04881 7.02217 5.03522L6.49102 4.70919L6.77957 6.43696C6.78869 6.47995 6.78384 6.52496 6.76582 6.56466C6.74781 6.60436 6.71767 6.63642 6.68032 6.65561C6.64357 6.676 6.60164 6.68339 6.56066 6.67672C6.51967 6.67005 6.48175 6.64966 6.45242 6.61852L5.80365 5.92936L5.6897 6.38034C5.67915 6.43078 5.65021 6.47472 5.60922 6.50254C5.56822 6.53035 5.51851 6.53976 5.47099 6.52871L4.49876 6.35496L4.79833 7.53999C4.80989 7.58694 4.80555 7.63671 4.78606 7.6806C4.76658 7.7245 4.73319 7.75972 4.69173 7.78012L4.30762 7.97534L6.13263 9.67578C6.15975 9.70038 6.17856 9.73372 6.18619 9.77073C6.19382 9.80773 6.18986 9.84637 6.17491 9.88076L5.9562 10.3981C6.59478 10.3163 7.23725 10.2732 7.88046 10.2693V12.3153H8.11571V10.2615C8.75946 10.2674 9.40244 10.3105 10.0418 10.3903L9.78267 9.93153C9.76218 9.89652 9.75407 9.85491 9.75979 9.81414C9.76552 9.77337 9.7847 9.73609 9.81391 9.70896L11.6941 7.93435L11.3081 7.73912C11.2655 7.72038 11.231 7.68528 11.2116 7.64079C11.1922 7.5963 11.1892 7.54568 11.2034 7.49899L11.5029 6.31201L10.5307 6.48771C10.4832 6.49876 10.4335 6.48935 10.3925 6.46153C10.3515 6.43372 10.3225 6.38978 10.312 6.33934L10.198 5.88641L9.49964 6.63023C9.47168 6.66173 9.43467 6.68246 9.39442 6.68917C9.35416 6.69589 9.31295 6.6882 9.27725 6.66732C9.23997 6.64932 9.20941 6.61861 9.19043 6.58006C9.17145 6.54151 9.16514 6.49732 9.17249 6.45453L9.41693 4.65843L8.90232 4.9747C8.85789 5.00178 8.8052 5.00918 8.75567 4.9953C8.70613 4.98141 8.66374 4.94736 8.63767 4.90051L7.97787 3.68425L7.28682 4.95908Z" fill="#FF0000"/>
<rect y="1.23079" width="3.69231" height="13.5385" fill="#FF0000"/>
<rect x="12.3076" y="1.23079" width="3.69231" height="13.5385" fill="#FF0000"/>
</g>
</svg>
