<svg width="16" height="16" viewBox="0 0 16 16" fill="none" xmlns="http://www.w3.org/2000/svg">
<mask id="mask0_16487_295715" style="mask-type:alpha" maskUnits="userSpaceOnUse" x="0" y="0" width="16" height="16">
<circle cx="8" cy="8" r="8" fill="white"/>
</mask>
<g mask="url(#mask0_16487_295715)">
<circle cx="8" cy="8" r="8" fill="white"/>
<circle cx="8" cy="8" r="7.75" stroke="black" stroke-opacity="0.25" stroke-width="0.5"/>
<path d="M10.9672 8.81031C10.899 8.26504 10.4726 7.69338 9.90229 7.42262C9.53767 7.25992 8.84059 7.10287 8.25706 7.93335C7.56314 8.92716 6.59102 9.28461 5.65232 8.88005C5.37965 8.7595 5.13338 8.58683 4.92749 8.37183C4.95033 8.59569 5.00054 8.81593 5.077 9.02767C5.29821 9.64356 5.71069 10.1733 6.25461 10.54C6.79853 10.9067 7.44561 11.0913 8.10201 11.0671C8.75841 11.0428 9.38999 10.811 9.90517 10.4053C10.4203 9.99947 10.7923 9.44082 10.9672 8.81031V8.81031Z" fill="#0065C7"/>
<path d="M5.80383 8.52255C6.16404 8.67332 7.08696 8.91706 7.92913 7.71783C8.47607 6.942 9.27787 6.68695 10.0708 7.0733C10.4689 7.25233 10.8278 7.59784 11.077 7.9823C11.0724 7.63996 11.0126 7.30059 10.8998 6.97718C10.6673 6.32148 10.2184 5.76366 9.62639 5.39488C9.03439 5.02609 8.3343 4.86814 7.64049 4.94683C6.94669 5.02552 6.30019 5.33619 5.80663 5.82809C5.31307 6.31999 5.00162 6.96404 4.92318 7.65501C5.05818 7.99612 5.39315 8.35043 5.80635 8.52444L5.80383 8.52255Z" fill="#FF0000"/>
<rect x="5.33358" y="2.73812" width="3.69231" height="0.369231" transform="rotate(135 5.33358 2.73812)" fill="#393939"/>
<rect x="5.95663" y="3.33024" width="3.69231" height="0.369231" transform="rotate(135 5.95663 3.33024)" fill="#393939"/>
<rect x="13.0645" y="5.33354" width="3.69231" height="0.369231" transform="rotate(-135 13.0645 5.33354)" fill="#393939"/>
<rect x="12.4723" y="5.95675" width="3.69231" height="0.369231" transform="rotate(-135 12.4723 5.95675)" fill="#393939"/>
<rect x="10.4692" y="13.4266" width="3.69231" height="0.369231" transform="rotate(-45 10.4692 13.4266)" fill="#393939"/>
<rect x="9.84611" y="12.8345" width="3.69231" height="0.369231" transform="rotate(-45 9.84611 12.8345)" fill="#393939"/>
<rect x="2.73869" y="10.6665" width="3.69231" height="0.369231" transform="rotate(45 2.73869 10.6665)" fill="#393939"/>
<rect x="3.33081" y="10.0433" width="3.69231" height="0.369231" transform="rotate(45 3.33081 10.0433)" fill="#393939"/>
</g>
</svg>
