<svg width="16" height="16" viewBox="0 0 16 16" fill="none" xmlns="http://www.w3.org/2000/svg">
<mask id="mask0_16487_295725" style="mask-type:alpha" maskUnits="userSpaceOnUse" x="0" y="0" width="16" height="16">
<circle cx="8" cy="8" r="8" fill="#C4C4C4"/>
</mask>
<g mask="url(#mask0_16487_295725)">
<rect y="16" width="16" height="16" rx="7.99999" transform="rotate(-90 0 16)" fill="white"/>
<rect x="0.25" y="15.75" width="15.5" height="15.5" rx="7.74999" transform="rotate(-90 0.25 15.75)" stroke="black" stroke-opacity="0.25" stroke-width="0.5"/>
<rect x="6.76921" y="16" width="16" height="2.46154" transform="rotate(-90 6.76921 16)" fill="#CA0814"/>
<rect y="6.76921" width="16" height="2.46154" fill="#CA0814"/>
<path d="M7.99992 4.63616L8.80483 6.44882L8.84423 6.53754L8.94076 6.5273L10.913 6.31804L9.74567 7.92145L9.68854 7.99992L9.74567 8.0784L10.913 9.68181L8.94076 9.47255L8.84423 9.46231L8.80483 9.55102L7.99992 11.3637L7.19502 9.55102L7.15562 9.46231L7.05909 9.47255L5.08682 9.68181L6.25418 8.0784L6.31131 7.99992L6.25418 7.92145L5.08682 6.31804L7.05909 6.5273L7.15562 6.53754L7.19502 6.44882L7.99992 4.63616Z" fill="white" stroke="black" stroke-width="0.266667"/>
</g>
</svg>
